# This file uses feet as units for non-parametric coordinates.

mtllib TexturedChair.mtl
g default
v -42.669037 90.964890 40.916149
v 42.669037 90.964890 40.916149
v -42.669037 97.411163 40.916149
v 42.669037 97.411163 40.916149
v -42.669037 90.964890 -41.402752
v 42.669037 90.964890 -41.402752
v -42.669037 90.964890 31.618193
v 42.669037 90.964890 31.618193
v -38.801659 97.411163 -37.535374
v -40.735348 96.893036 -39.469063
v -42.150906 95.477478 -40.884621
v -42.669037 93.543785 -41.402752
v 42.669037 93.543785 -41.402752
v 42.150906 95.477478 -40.884621
v 40.735348 96.893036 -39.469063
v 38.801659 97.411163 -37.535374
v -38.801659 97.411163 31.618193
v -40.735348 96.893036 31.618193
v -42.150906 95.477478 31.618193
v -42.669037 93.543785 31.618193
v -42.669037 97.411163 34.352840
v 38.801659 97.411163 31.618193
v 42.669037 97.411163 34.352840
v 42.669037 93.543785 31.618193
v 42.150906 95.477478 31.618193
v 40.735348 96.893036 31.618193
v 26.074883 0.284912 -26.437460
v 34.885117 0.284912 -26.437460
v 26.074883 90.964890 -26.437460
v 34.885117 90.964890 -26.437460
v 26.074883 90.964890 -34.522537
v 34.885117 90.964890 -34.522537
v 26.074883 0.284912 -34.522537
v 34.885117 0.284912 -34.522537
v -34.885117 0.284912 -26.437460
v -26.074883 0.284912 -26.437460
v -34.885117 90.964890 -26.437460
v -26.074883 90.964890 -26.437460
v -34.885117 90.964890 -34.522537
v -26.074883 90.964890 -34.522537
v -34.885117 0.284912 -34.522537
v -26.074883 0.284912 -34.522537
v 26.074883 0.284912 34.522537
v 34.885117 0.284912 34.522537
v 26.074883 90.964890 34.522537
v 34.885117 90.964890 34.522537
v 26.074883 90.964890 26.437460
v 34.885117 90.964890 26.437460
v 26.074883 0.284912 26.437460
v 34.885117 0.284912 26.437460
v -34.885117 0.284912 34.522537
v -26.074883 0.284912 34.522537
v -34.885117 90.964890 34.522537
v -26.074883 90.964890 34.522537
v -34.885117 90.964890 26.437460
v -26.074883 90.964890 26.437460
v -34.885117 0.284912 26.437460
v -26.074883 0.284912 26.437460
v 21.867573 97.411163 38.654575
v 28.987667 97.411163 38.654575
v 21.867573 191.609924 38.410324
v 28.987667 191.609924 38.410324
v 21.867573 191.609924 33.482700
v 28.987667 191.609924 33.482700
v 21.867573 97.411163 33.726944
v 28.987667 97.411163 33.726944
v -42.669037 191.609924 38.503071
v 42.669037 191.609924 38.503071
v -42.669037 198.056183 38.503071
v 42.669037 198.056183 38.503071
v 9.684187 97.411163 38.654575
v 16.804279 97.411163 38.654575
v 9.684187 191.609924 38.410324
v 16.804279 191.609924 38.410324
v 9.684187 191.609924 33.482700
v 16.804279 191.609924 33.482700
v 9.684187 97.411163 33.726944
v 16.804279 97.411163 33.726944
v 33.398819 97.411163 38.654575
v 40.518913 97.411163 38.654575
v 33.398819 191.609924 38.410324
v 40.518913 191.609924 38.410324
v 33.398819 191.609924 33.482700
v 40.518913 191.609924 33.482700
v 33.398819 97.411163 33.726944
v 40.518913 97.411163 33.726944
v -29.265070 97.411163 38.654575
v -22.144976 97.411163 38.654575
v -29.265070 191.609924 38.410324
v -22.144976 191.609924 38.410324
v -29.265070 191.609924 33.482700
v -22.144976 191.609924 33.482700
v -29.265070 97.411163 33.726944
v -22.144976 97.411163 33.726944
v -17.733824 97.411163 38.654575
v -10.613731 97.411163 38.654575
v -17.733824 191.609924 38.410324
v -10.613731 191.609924 38.410324
v -17.733824 191.609924 33.482700
v -10.613731 191.609924 33.482700
v -17.733824 97.411163 33.726944
v -10.613731 97.411163 33.726944
v -41.448456 97.411163 38.654575
v -34.328362 97.411163 38.654575
v -41.448456 191.609924 38.410324
v -34.328362 191.609924 38.410324
v -41.448456 191.609924 33.482700
v -34.328362 191.609924 33.482700
v -41.448456 97.411163 33.726944
v -34.328362 97.411163 33.726944
v -42.669037 198.056183 33.291416
v -41.057632 196.444778 31.680010
v 41.057632 196.444778 31.680010
v 42.669037 198.056183 33.291416
v -41.057632 193.221329 31.680010
v -42.669037 191.609924 33.291416
v 41.057632 193.221329 31.680010
v 42.669037 191.609924 33.291416
v 38.895042 97.411163 40.916149
v -38.873512 97.411163 40.916149
vt 0.081748 0.950179
vt 0.089081 0.942794
vt 0.376113 0.942569
vt 0.383422 0.949945
vt 0.088576 0.685443
vt 0.377532 0.686730
vt 0.081143 0.685511
vt 0.384964 0.686821
vt 0.420944 0.956464
vt 0.421792 0.685982
vt 0.431345 0.686012
vt 0.430497 0.956494
vt 0.413534 0.954521
vt 0.414376 0.685959
vt 0.406136 0.949254
vt 0.406961 0.685936
vt 0.384979 0.970416
vt 0.383152 0.977498
vt 0.084976 0.977708
vt 0.083139 0.970629
vt 0.378150 0.984583
vt 0.089988 0.984785
vt 0.083132 0.961507
vt 0.384973 0.961295
vt 0.043918 0.958827
vt 0.041439 0.686936
vt 0.051041 0.686848
vt 0.053520 0.958739
vt 0.060957 0.956742
vt 0.058495 0.686780
vt 0.068363 0.951403
vt 0.065949 0.686712
vt 0.383430 0.309512
vt 0.067235 0.309512
vt 0.067235 0.273797
vt 0.383430 0.273797
vt 0.383430 0.589993
vt 0.067235 0.589993
vt 0.075716 0.640489
vt 0.392163 0.641613
vt 0.392077 0.665951
vt 0.377700 0.676041
vt 0.089935 0.675018
vt 0.075630 0.664827
vt 0.082518 0.675338
vt 0.075384 0.677391
vt 0.392233 0.678517
vt 0.385114 0.676413
vt 0.405099 0.675723
vt 0.404700 0.641007
vt 0.428769 0.640730
vt 0.429050 0.665235
vt 0.414728 0.675612
vt 0.422199 0.675875
vt 0.068346 0.641720
vt 0.068266 0.676621
vt 0.058586 0.676598
vt 0.044093 0.666300
vt 0.044150 0.641665
vt 0.051079 0.676932
vt 0.076420 0.602080
vt 0.392612 0.602081
vt 0.392612 0.627730
vt 0.076421 0.627729
vt 0.475241 0.589946
vt 0.510590 0.589946
vt 0.510591 0.986425
vt 0.475241 0.986425
vt 0.549112 0.589946
vt 0.584462 0.589946
vt 0.584462 0.986425
vt 0.549112 0.986425
vt 0.541940 0.503832
vt 0.541941 0.468482
vt 0.938420 0.468489
vt 0.938419 0.503840
vt 0.541942 0.429960
vt 0.541942 0.394610
vt 0.938421 0.394618
vt 0.938421 0.429969
vt 0.809550 0.588628
vt 0.844900 0.588630
vt 0.844880 0.985109
vt 0.809530 0.985107
vt 0.883422 0.588632
vt 0.918771 0.588633
vt 0.918752 0.985112
vt 0.883402 0.985111
vt 0.637995 0.589150
vt 0.673345 0.589148
vt 0.673363 0.985627
vt 0.638013 0.985629
vt 0.711866 0.589147
vt 0.747216 0.589146
vt 0.747234 0.985624
vt 0.711884 0.985626
vt 0.549112 0.551425
vt 0.584462 0.551425
vt 0.503422 0.429960
vt 0.503422 0.394610
vt 0.883422 0.550112
vt 0.918771 0.550112
vt 0.711866 0.550625
vt 0.747216 0.550625
vt 0.436720 0.589946
vt 0.436720 0.986425
vt 0.541940 0.542352
vt 0.938419 0.542361
vt 0.771029 0.588626
vt 0.771009 0.985105
vt 0.599474 0.589152
vt 0.599492 0.985631
vt 0.558116 0.374167
vt 0.539500 0.374119
vt 0.539500 0.018238
vt 0.558116 0.018287
vt 0.603632 0.374119
vt 0.585016 0.374167
vt 0.585015 0.018287
vt 0.603632 0.018238
vt 0.673849 0.374167
vt 0.655232 0.374119
vt 0.655233 0.018238
vt 0.673849 0.018287
vt 0.719365 0.374119
vt 0.700749 0.374167
vt 0.700748 0.018287
vt 0.719365 0.018238
vt 0.454338 0.374167
vt 0.435722 0.374119
vt 0.435722 0.018238
vt 0.454338 0.018287
vt 0.499854 0.374119
vt 0.481237 0.374167
vt 0.481238 0.018287
vt 0.499854 0.018238
vt 0.889943 0.374167
vt 0.871327 0.374119
vt 0.871327 0.018238
vt 0.889943 0.018287
vt 0.935459 0.374119
vt 0.916843 0.374167
vt 0.916842 0.018287
vt 0.935459 0.018238
vt 0.781692 0.374167
vt 0.763076 0.374119
vt 0.763076 0.018238
vt 0.781692 0.018287
vt 0.827208 0.374119
vt 0.808592 0.374167
vt 0.808592 0.018287
vt 0.827208 0.018238
vt 0.406076 0.094372
vt 0.406028 0.112988
vt 0.050147 0.112988
vt 0.050196 0.094372
vt 0.406028 0.048856
vt 0.406076 0.067473
vt 0.050196 0.067473
vt 0.050148 0.048856
vt 0.630531 0.018239
vt 0.630531 0.374119
vt 0.746264 0.018239
vt 0.746264 0.374119
vt 0.526753 0.018239
vt 0.526753 0.374119
vt 0.962359 0.018239
vt 0.962359 0.374119
vt 0.854108 0.018239
vt 0.854108 0.374119
vt 0.050148 0.021957
vt 0.406028 0.021957
vt 0.066989 0.233140
vt 0.047033 0.233140
vt 0.047033 0.208457
vt 0.066989 0.208457
vt 0.413714 0.233141
vt 0.393758 0.233140
vt 0.393758 0.208457
vt 0.413714 0.208457
vt 0.066989 0.188501
vt 0.393758 0.188501
vt 0.393758 0.253096
vt 0.066989 0.253096
vt 0.406866 0.158877
vt 0.054321 0.158877
vt 0.054321 0.146522
vt 0.406866 0.146522
vt 0.413785 0.165053
vt 0.047403 0.165053
vt 0.047403 0.140345
vt 0.413785 0.140345
vt 0.378169 0.641564
vt 0.378629 0.627730
vt 0.089791 0.640539
vt 0.090484 0.627729
vn 0.000000 0.000000 1.000000
vn 0.000000 0.000000 1.000000
vn 0.000000 0.000000 1.000000
vn 0.000000 0.000000 1.000000
vn 0.000000 0.000000 1.000000
vn 0.000000 0.000000 1.000000
vn 0.005862 0.999983 -0.000068
vn 0.000000 1.000000 0.000000
vn 0.000000 1.000000 0.000000
vn 0.871652 0.489960 -0.012767
vn 0.000000 -1.000000 0.000000
vn 0.000000 -1.000000 0.000000
vn 0.000000 -1.000000 0.000000
vn 0.000000 -1.000000 0.000000
vn 0.000000 -1.000000 0.000000
vn 0.000000 -1.000000 0.000000
vn 1.000000 0.000000 0.000000
vn 1.000000 0.000000 0.000000
vn 0.995893 0.090530 -0.001006
vn 1.000000 0.000000 0.000000
vn -1.000000 0.000000 0.000000
vn -1.000000 0.000000 0.000000
vn -1.000000 0.000000 0.000000
vn -0.870983 0.491148 -0.012758
vn -0.995893 0.090530 -0.001006
vn -0.643739 0.143917 -0.751590
vn -0.544201 0.550932 -0.632708
vn 0.544201 0.550932 -0.632708
vn 0.643739 0.143917 -0.751590
vn -0.311151 0.880154 -0.358489
vn 0.311151 0.880154 -0.358489
vn -0.009330 0.999901 -0.010583
vn 0.009330 0.999901 -0.010583
vn 0.650145 0.000000 -0.759810
vn -0.650145 0.000000 -0.759810
vn -0.005863 0.999983 -0.000068
vn -0.501490 0.865108 -0.009812
vn -0.867521 0.497307 -0.009636
vn 0.867521 0.497307 -0.009636
vn 0.501490 0.865108 -0.009812
vn 0.000000 0.000000 1.000000
vn 0.000000 0.000000 1.000000
vn 0.000000 0.000000 1.000000
vn 0.000000 0.000000 1.000000
vn 0.000000 1.000000 0.000000
vn 0.000000 1.000000 0.000000
vn 0.000000 1.000000 0.000000
vn 0.000000 1.000000 0.000000
vn 0.000000 0.000000 -1.000000
vn 0.000000 0.000000 -1.000000
vn 0.000000 0.000000 -1.000000
vn 0.000000 0.000000 -1.000000
vn 0.000000 -1.000000 0.000000
vn 0.000000 -1.000000 0.000000
vn 0.000000 -1.000000 0.000000
vn 0.000000 -1.000000 0.000000
vn 1.000000 0.000000 0.000000
vn 1.000000 0.000000 0.000000
vn 1.000000 0.000000 0.000000
vn 1.000000 0.000000 0.000000
vn -1.000000 0.000000 0.000000
vn -1.000000 0.000000 0.000000
vn -1.000000 0.000000 0.000000
vn -1.000000 0.000000 0.000000
vn 0.000000 0.000000 1.000000
vn 0.000000 0.000000 1.000000
vn 0.000000 0.000000 1.000000
vn 0.000000 0.000000 1.000000
vn 0.000000 1.000000 0.000000
vn 0.000000 1.000000 0.000000
vn 0.000000 1.000000 0.000000
vn 0.000000 1.000000 0.000000
vn 0.000000 0.000000 -1.000000
vn 0.000000 0.000000 -1.000000
vn 0.000000 0.000000 -1.000000
vn 0.000000 0.000000 -1.000000
vn 0.000000 -1.000000 0.000000
vn 0.000000 -1.000000 0.000000
vn 0.000000 -1.000000 0.000000
vn 0.000000 -1.000000 0.000000
vn 1.000000 0.000000 0.000000
vn 1.000000 0.000000 0.000000
vn 1.000000 0.000000 0.000000
vn 1.000000 0.000000 0.000000
vn -1.000000 0.000000 0.000000
vn -1.000000 0.000000 0.000000
vn -1.000000 0.000000 0.000000
vn -1.000000 0.000000 0.000000
vn 0.000000 0.000000 1.000000
vn 0.000000 0.000000 1.000000
vn 0.000000 0.000000 1.000000
vn 0.000000 0.000000 1.000000
vn 0.000000 1.000000 0.000000
vn 0.000000 1.000000 0.000000
vn 0.000000 1.000000 0.000000
vn 0.000000 1.000000 0.000000
vn 0.000000 0.000000 -1.000000
vn 0.000000 0.000000 -1.000000
vn 0.000000 0.000000 -1.000000
vn 0.000000 0.000000 -1.000000
vn 0.000000 -1.000000 0.000000
vn 0.000000 -1.000000 0.000000
vn 0.000000 -1.000000 0.000000
vn 0.000000 -1.000000 0.000000
vn 1.000000 0.000000 0.000000
vn 1.000000 0.000000 0.000000
vn 1.000000 0.000000 0.000000
vn 1.000000 0.000000 0.000000
vn -1.000000 0.000000 0.000000
vn -1.000000 0.000000 0.000000
vn -1.000000 0.000000 0.000000
vn -1.000000 0.000000 0.000000
vn 0.000000 0.000000 1.000000
vn 0.000000 0.000000 1.000000
vn 0.000000 0.000000 1.000000
vn 0.000000 0.000000 1.000000
vn 0.000000 1.000000 0.000000
vn 0.000000 1.000000 0.000000
vn 0.000000 1.000000 0.000000
vn 0.000000 1.000000 0.000000
vn 0.000000 0.000000 -1.000000
vn 0.000000 0.000000 -1.000000
vn 0.000000 0.000000 -1.000000
vn 0.000000 0.000000 -1.000000
vn 0.000000 -1.000000 0.000000
vn 0.000000 -1.000000 0.000000
vn 0.000000 -1.000000 0.000000
vn 0.000000 -1.000000 0.000000
vn 1.000000 0.000000 0.000000
vn 1.000000 0.000000 0.000000
vn 1.000000 0.000000 0.000000
vn 1.000000 0.000000 0.000000
vn -1.000000 0.000000 0.000000
vn -1.000000 0.000000 0.000000
vn -1.000000 0.000000 0.000000
vn -1.000000 0.000000 0.000000
vn 0.000000 0.002593 0.999997
vn 0.000000 0.002593 0.999997
vn 0.000000 0.002593 0.999997
vn 0.000000 0.002593 0.999997
vn 0.000000 -0.002593 -0.999997
vn 0.000000 -0.002593 -0.999997
vn 0.000000 -0.002593 -0.999997
vn 0.000000 -0.002593 -0.999997
vn 1.000000 -0.000000 0.000000
vn 1.000000 -0.000000 0.000000
vn 1.000000 -0.000000 0.000000
vn 1.000000 -0.000000 0.000000
vn -1.000000 -0.000000 0.000000
vn -1.000000 -0.000000 0.000000
vn -1.000000 -0.000000 0.000000
vn -1.000000 -0.000000 0.000000
vn 0.000000 0.000000 1.000000
vn 0.000000 0.000000 1.000000
vn 0.000000 0.000000 1.000000
vn 0.000000 0.000000 1.000000
vn 0.000000 0.002593 0.999997
vn 0.000000 0.002593 0.999997
vn 0.000000 0.002593 0.999997
vn 0.000000 0.002593 0.999997
vn 0.000000 -0.002593 -0.999997
vn 0.000000 -0.002593 -0.999997
vn 0.000000 -0.002593 -0.999997
vn 0.000000 -0.002593 -0.999997
vn 1.000000 0.000000 0.000000
vn 1.000000 0.000000 0.000000
vn 1.000000 0.000000 0.000000
vn 1.000000 0.000000 0.000000
vn -1.000000 -0.000000 0.000000
vn -1.000000 -0.000000 0.000000
vn -1.000000 -0.000000 0.000000
vn -1.000000 -0.000000 0.000000
vn 0.000000 0.002593 0.999997
vn 0.000000 0.002593 0.999997
vn 0.000000 0.002593 0.999997
vn 0.000000 0.002593 0.999997
vn 0.000000 -0.002593 -0.999997
vn 0.000000 -0.002593 -0.999997
vn 0.000000 -0.002593 -0.999997
vn 0.000000 -0.002593 -0.999997
vn 1.000000 -0.000000 0.000000
vn 1.000000 -0.000000 0.000000
vn 1.000000 -0.000000 0.000000
vn 1.000000 -0.000000 0.000000
vn -1.000000 -0.000000 0.000000
vn -1.000000 -0.000000 0.000000
vn -1.000000 -0.000000 0.000000
vn -1.000000 -0.000000 0.000000
vn 0.000000 0.002593 0.999997
vn 0.000000 0.002593 0.999997
vn 0.000000 0.002593 0.999997
vn 0.000000 0.002593 0.999997
vn 0.000000 -0.002593 -0.999997
vn 0.000000 -0.002593 -0.999997
vn 0.000000 -0.002593 -0.999997
vn 0.000000 -0.002593 -0.999997
vn 1.000000 0.000000 0.000000
vn 1.000000 0.000000 0.000000
vn 1.000000 0.000000 0.000000
vn 1.000000 0.000000 0.000000
vn -1.000000 -0.000000 0.000000
vn -1.000000 -0.000000 0.000000
vn -1.000000 -0.000000 0.000000
vn -1.000000 -0.000000 0.000000
vn 0.000000 0.002593 0.999997
vn 0.000000 0.002593 0.999997
vn 0.000000 0.002593 0.999997
vn 0.000000 0.002593 0.999997
vn 0.000000 -0.002593 -0.999997
vn 0.000000 -0.002593 -0.999997
vn 0.000000 -0.002593 -0.999997
vn 0.000000 -0.002593 -0.999997
vn 1.000000 0.000000 0.000000
vn 1.000000 0.000000 0.000000
vn 1.000000 0.000000 0.000000
vn 1.000000 0.000000 0.000000
vn -1.000000 0.000000 0.000000
vn -1.000000 0.000000 0.000000
vn -1.000000 0.000000 0.000000
vn -1.000000 0.000000 0.000000
vn 0.000000 0.002593 0.999997
vn 0.000000 0.002593 0.999997
vn 0.000000 0.002593 0.999997
vn 0.000000 0.002593 0.999997
vn 0.000000 -0.002593 -0.999997
vn 0.000000 -0.002593 -0.999997
vn 0.000000 -0.002593 -0.999997
vn 0.000000 -0.002593 -0.999997
vn 1.000000 -0.000000 0.000000
vn 1.000000 -0.000000 0.000000
vn 1.000000 -0.000000 0.000000
vn 1.000000 -0.000000 0.000000
vn -1.000000 -0.000000 0.000000
vn -1.000000 -0.000000 0.000000
vn -1.000000 -0.000000 0.000000
vn -1.000000 -0.000000 0.000000
vn -0.707106 0.000000 -0.707108
vn -0.707106 0.000000 -0.707107
vn -0.707106 0.000000 -0.707107
vn -0.707106 0.000000 -0.707108
vn 0.000000 0.707109 -0.707105
vn 0.000000 0.707109 -0.707105
vn 0.000000 0.707109 -0.707105
vn 0.000000 0.707109 -0.707105
vn 0.707106 0.000000 -0.707108
vn 0.707106 0.000000 -0.707108
vn 0.707106 0.000000 -0.707108
vn 0.707106 0.000000 -0.707108
vn 0.000000 -0.707109 -0.707105
vn 0.000000 -0.707109 -0.707105
vn 0.000000 -0.707109 -0.707105
vn 0.000000 -0.707109 -0.707105
vn 0.000000 1.000000 0.000000
vn 0.000000 1.000000 0.000000
vn 0.000000 1.000000 0.000000
vn 0.000000 1.000000 0.000000
vn 0.000000 0.000000 -1.000000
vn 0.000000 0.000000 -1.000000
vn 0.000000 0.000000 -1.000000
vn 0.000000 0.000000 -1.000000
vn 0.000000 -1.000000 0.000000
vn 0.000000 -1.000000 0.000000
vn 0.000000 -1.000000 0.000000
vn 0.000000 -1.000000 0.000000
vn 1.000000 0.000000 0.000000
vn 1.000000 0.000000 0.000000
vn 1.000000 0.000000 0.000000
vn 1.000000 0.000000 0.000000
vn -1.000000 0.000000 0.000000
vn -1.000000 0.000000 0.000000
vn -1.000000 0.000000 0.000000
vn -1.000000 0.000000 0.000000
vn 0.000000 1.000000 -0.000000
vn 0.000000 1.000000 -0.000001
s off
g Chair
usemtl blinn1SG
f 1/61/1 2/62/2 4/63/3 119/194/4 120/196/5 3/64/6
s 1
f 22/42/7 119/193/8 4/40/9 23/41/10
s off
f 8/34/11 2/35/12 1/36/13 7/33/14 5/37/15 6/38/16
s 1
f 2/55/17 8/56/18 24/57/19 23/58/10 4/59/20
f 7/49/21 1/50/22 3/51/23 21/52/24 20/53/25
f 12/17/26 11/18/27 14/19/28 13/20/29
f 11/18/27 10/21/30 15/22/31 14/19/28
f 10/1/30 9/2/32 16/3/33 15/4/31
f 12/17/26 13/20/29 6/23/34 5/24/35
f 5/25/35 7/26/21 20/27/25 12/28/26
f 13/9/29 24/10/19 8/11/18 6/12/34
f 9/2/32 17/5/36 22/6/7 16/3/33
f 21/44/24 17/43/36 18/45/37
f 21/44/24 18/45/37 19/46/38
f 21/52/24 19/54/38 20/53/25
f 23/58/10 24/57/19 25/60/39
f 23/41/10 25/47/39 26/48/40
f 23/41/10 26/48/40 22/42/7
f 11/29/27 12/28/26 20/27/25 19/30/38
f 9/2/32 10/1/30 18/7/37 17/5/36
f 10/31/30 11/29/27 19/30/38 18/32/37
f 15/4/31 16/3/33 22/6/7 26/8/40
f 13/9/29 14/13/28 25/14/39 24/10/19
f 14/13/28 15/15/31 26/16/40 25/14/39
s off
f 27/105/41 28/65/42 30/68/43 29/106/44
f 29//45 30//46 32//47 31//48
f 31/72/49 32/67/50 34/66/51 33/69/52
f 33/69/53 34/97/54 28/98/55 27/70/56
f 28/65/57 34/66/58 32/67/59 30/68/60
f 33/69/61 27/70/62 29/71/63 31/72/64
f 35/107/65 36/73/66 38/76/67 37/108/68
f 37//69 38//70 40//71 39//72
f 39/80/73 40/75/74 42/74/75 41/77/76
f 41/77/77 42/99/78 36/100/79 35/78/80
f 36/73/81 42/74/82 40/75/83 38/76/84
f 41/77/85 35/78/86 37/79/87 39/80/88
f 43/109/89 44/81/90 46/84/91 45/110/92
f 45//93 46//94 48//95 47//96
f 47/88/97 48/83/98 50/82/99 49/85/100
f 49/85/101 50/101/102 44/102/103 43/86/104
f 44/81/105 50/82/106 48/83/107 46/84/108
f 49/85/109 43/86/110 45/87/111 47/88/112
f 51/111/113 52/89/114 54/92/115 53/112/116
f 53//117 54//118 56//119 55//120
f 55/96/121 56/91/122 58/90/123 57/93/124
f 57/93/125 58/103/126 52/104/127 51/94/128
f 52/89/129 58/90/130 56/91/131 54/92/132
f 57/93/133 51/94/134 53/95/135 55/96/136
f 59/118/137 60/113/138 62/116/139 61/119/140
f 63/120/141 64/161/142 66/162/143 65/117/144
f 60/113/145 66/114/146 64/115/147 62/116/148
f 65/117/149 59/118/150 61/119/151 63/120/152
f 67/178/153 68/173/154 70/176/155 69/179/156
f 71/126/157 72/121/158 74/124/159 73/127/160
f 75/128/161 76/163/162 78/164/163 77/125/164
f 72/121/165 78/122/166 76/123/167 74/124/168
f 77/125/169 71/126/170 73/127/171 75/128/172
f 79/134/173 80/129/174 82/132/175 81/135/176
f 83/136/177 84/165/178 86/166/179 85/133/180
f 80/129/181 86/130/182 84/131/183 82/132/184
f 85/133/185 79/134/186 81/135/187 83/136/188
f 87/142/189 88/137/190 90/140/191 89/143/192
f 91/144/193 92/167/194 94/168/195 93/141/196
f 88/137/197 94/138/198 92/139/199 90/140/200
f 93/141/201 87/142/202 89/143/203 91/144/204
f 95/150/205 96/145/206 98/148/207 97/151/208
f 99/152/209 100/169/210 102/170/211 101/149/212
f 96/145/213 102/146/214 100/147/215 98/148/216
f 101/149/217 95/150/218 97/151/219 99/152/220
f 103/158/221 104/153/222 106/156/223 105/159/224
f 107/160/225 108/171/226 110/172/227 109/157/228
f 104/153/229 110/154/230 108/155/231 106/156/232
f 109/157/233 103/158/234 105/159/235 107/160/236
f 111/189/237 112/185/238 115/188/239 116/192/240
f 112/185/241 111/189/242 114/190/243 113/186/244
f 113/186/245 114/190/246 118/191/247 117/187/248
f 116/192/249 115/188/250 117/187/251 118/191/252
f 69/179/253 70/176/254 114/181/255 111/182/256
f 112/185/257 113/186/258 117/187/259 115/188/260
f 116/183/261 118/184/262 68/173/263 67/178/264
f 68/173/265 118/174/266 114/175/267 70/176/268
f 116/177/269 67/178/270 69/179/271 111/180/272
s 1
f 17/43/36 120/195/273 119/193/8 22/42/7
f 3/39/274 120/195/273 17/43/36 21/44/24
